:SAMPLES-PER-SECOND 30
:FULLY-SPECIFIED
:DEGREES
264
root  3.38476 38.6262 -3.96155 5.56634 74.2864 9.28485
RightUpLeg  -21.5 -6.22473 -1.94906
RightLeg  3.01988 -13.0162 4.96971
RightFoot  -2.01286 -0.441117 5.21541
RightToes  0.00048216 0.542163 -0.142577
Spine  14.7287 -1.00577 -3.45133
Spine1  9.14837 -0.980749 -2.48352
HEad  6.12914 5.57067 0.489568
LeftShoulder1  8.21725 -11.8432 -46.7088
LeftArm  -7.78139 16.3958 -26.9023
LeftForeArm  25.4443 -9.82306 -6.15892
LeftHand  -0.25398 0.0180481 5.50724
RightShoulder  5.61011 9.8479 36.0359
RightArm  -4.66392 -25.7084 37.4069
RightForeArm  15.3552 11.2041 6.94379
RightHand  -0.128313 -3.56309 -6.71864
LeftUpLeg  17.1181 6.54097 -2.96359
LeftLeg  10.9177 24.8556 -1.32572
LeftFoot  -23.1829 -0.441464 -5.58679
LeftToes  1.06246e-005 4.65856e-005 -8.18501e-006
265
root  4.55291 38.271 -3.78399 6.76549 75.5158 10.7617
RightUpLeg  -22.3784 -6.05167 -2.44385
RightLeg  2.57001 -12.6036 4.94261
RightFoot  -0.0535522 -0.34904 3.59105
RightToes  0.00048216 0.542163 -0.142577
Spine  15.2474 -1.41387 -2.46098
Spine1  9.70953 -1.29057 -2.6263
HEad  6.03617 4.66568 -0.101765
LeftShoulder1  8.33805 -12.0008 -46.9199
LeftArm  -7.00216 13.6736 -26.6642
LeftForeArm  26.1722 -10.4983 -6.29312
LeftHand  -0.25398 0.0180481 5.50724
RightShoulder  5.61602 9.88824 35.9553
RightArm  -5.94616 -25.4013 37.1413
RightForeArm  17.4437 10.1382 6.82059
RightHand  -0.0872009 -4.05336 -5.32571
LeftUpLeg  19.5499 6.65702 -2.76677
LeftLeg  10.6394 23.1437 -1.52261
LeftFoot  -24.3707 -0.575208 -6.31528
LeftToes  1.06246e-005 4.65856e-005 -8.18501e-006
266
root  5.81195 37.949 -3.55105 6.32905 77.0723 10.1794
RightUpLeg  -24.4318 -8.44978 -1.19031
RightLeg  6.5105 -10.9102 3.61276
RightFoot  3.70708 0.0418525 -0.062877
RightToes  0.00048216 0.542163 -0.142577
Spine  15.4956 -1.81679 -0.936308
Spine1  10.2181 -1.69586 -2.23558
HEad  5.96563 3.6598 -0.864132
LeftShoulder1  8.37423 -12.0904 -46.8517
LeftArm  -6.6023 11.2543 -27.1055
LeftForeArm  26.2133 -11.5776 -6.18204
LeftHand  -0.25398 0.0180481 5.50724
RightShoulder  5.61945 9.88475 35.991
RightArm  -6.66981 -24.7131 36.439
RightForeArm  18.5805 9.30248 6.70162
RightHand  -0.0684871 -4.36758 -4.60306
LeftUpLeg  21.5185 7.40121 -1.46944
LeftLeg  10.9645 20.6378 -1.30838
LeftFoot  -25.0711 -0.673466 -6.8391
LeftToes  1.06246e-005 4.65856e-005 -8.18501e-006
267
root  7.16571 37.6565 -3.26923 2.66298 78.5315 6.18104
RightUpLeg  -27.4996 -14.4986 2.90354
RightLeg  13.4455 -5.76825 0.830669
RightFoot  7.35776 0.695945 -3.94508
RightToes  0.00048216 0.542163 -0.142577
Spine  15.9696 -2.22065 1.2441
Spine1  10.3 -2.06382 -1.65404
HEad  5.65555 2.76814 -1.79128
LeftShoulder1  8.44944 -12.1999 -46.9446
LeftArm  -6.34771 9.52037 -27.7324
LeftForeArm  24.6991 -13.8551 -5.60684
LeftHand  -0.25398 0.0180481 5.50724
RightShoulder  5.61536 9.86772 36.0134
RightArm  -7.22228 -23.4911 35.4964
RightForeArm  18.6756 8.80597 6.55498
RightHand  -0.0815071 -4.18134 -5.17916
LeftUpLeg  22.9608 9.47658 1.28611
LeftLeg  12.716 16.7674 -0.284775
LeftFoot  -25.3797 -0.82914 -7.94044
LeftToes  1.06246e-005 4.65856e-005 -8.18501e-006
268
root  8.58717 37.411 -2.9728 -5.0617 79.394 -1.40667
RightUpLeg  -29.5442 -17.6638 6.27763
RightLeg  20.4072 -2.81466 -1.69489
RightFoot  8.28719 1.18626 -6.54966
RightToes  0.00048216 0.542163 -0.142577
Spine  17.1313 -2.81264 4.15114
Spine1  10.2411 -2.27857 -1.41143
HEad  5.06964 2.30179 -2.88684
LeftShoulder1  8.66351 -12.4635 -47.3487
LeftArm  -5.59781 8.48391 -28.0533
LeftForeArm  21.0235 -17.3733 -4.72394
LeftHand  -0.25398 0.0180481 5.50724
RightShoulder  5.68436 10.0053 36.0938
RightArm  -8.03722 -21.3357 34.4274
RightForeArm  17.9973 8.3947 6.34475
RightHand  -0.122225 -3.61374 -6.51637
LeftUpLeg  24.5739 13.0844 5.52301
LeftLeg  15.6455 10.4676 1.19563
LeftFoot  -25.0853 -1.26206 -11.7072
LeftToes  1.06246e-005 4.65856e-005 -8.18501e-006
269
root  10.0443 37.2697 -2.67695 -14.4032 79.4719 -10.2261
RightUpLeg  -29.2047 -15.7407 6.51255
RightLeg  26.1784 -4.84944 -2.80168
RightFoot  5.78564 1.27258 -8.17999
RightToes  0.00048216 0.542163 -0.142577
Spine  18.6436 -3.58383 7.33612
Spine1  10.6115 -2.46434 -1.26389
HEad  4.83973 2.49485 -4.12898
LeftShoulder1  8.8843 -12.8081 -47.5363
LeftArm  -4.61146 7.94543 -28.2864
LeftForeArm  16.6534 -21.0093 -4.16129
LeftHand  -0.25398 0.0180481 5.50724
RightShoulder  5.85027 10.3262 36.3113
RightArm  -9.1011 -18.0013 33.3086
RightForeArm  16.8356 7.781 6.09529
RightHand  -0.162613 -3.16532 -7.51791
LeftUpLeg  25.2077 15.2391 9.21039
LeftLeg  20.6386 6.16385 3.08548
LeftFoot  -22.4864 -1.52918 -17.2294
LeftToes  1.06246e-005 4.65856e-005 -8.18501e-006
270
root  11.5028 37.2541 -2.36027 -20.9504 79.2618 -16.6939
RightUpLeg  -28.4059 -15.6452 7.24937
RightLeg  30.1435 -5.04618 -3.39504
RightFoot  1.80633 1.06766 -9.11447
RightToes  0.00048216 0.542163 -0.142577
Spine  19.5166 -4.28742 9.82007
Spine1  11.1092 -2.7524 -0.756062
HEad  5.52533 3.11958 -5.4395
LeftShoulder1  8.91479 -12.9951 -47.1509
LeftArm  -3.89361 7.7216 -28.9097
LeftForeArm  14.0384 -23.7332 -4.31477
LeftHand  -0.25398 0.0180481 5.50724
RightShoulder  5.98838 10.5892 36.497
RightArm  -10.1657 -13.7393 32.3337
RightForeArm  15.5452 7.20907 5.87214
RightHand  -0.178179 -2.996 -7.78564
LeftUpLeg  21.8591 12.7837 9.65454
LeftLeg  30.1273 9.52544 6.38432
LeftFoot  -14.8257 -0.53779 -18.8283
LeftToes  1.06246e-005 4.65856e-005 -8.18501e-006
